<?xml version="1.0" encoding="UTF-8"?>
<svg width="369px" height="529px" viewBox="0 0 369 529" version="1.1" xmlns="http://www.w3.org/2000/svg" xmlns:xlink="http://www.w3.org/1999/xlink">
    <title>person-error-404-desktop</title>
    <defs>
        <polygon id="path-1" points="0 0 369 0 369 369 0 369"></polygon>
        <path d="M0,273.486948 C0,375.390875 82.6033313,458 184.499888,458 L184.499888,458 C286.396445,458 369,375.390875 369,273.486948 L369,273.486948 C369,171.583245 286.421728,0 184.525171,0 L184.525171,0 C82.6283903,0 0,171.583245 0,273.486948 L0,273.486948 Z" id="path-3"></path>
        <path d="M0,273.486948 C0,375.390875 82.6033313,458 184.499888,458 L184.499888,458 C286.396445,458 369,375.390875 369,273.486948 L369,273.486948 C369,171.583245 286.421728,0 184.525171,0 L184.525171,0 C82.6283903,0 0,171.583245 0,273.486948 L0,273.486948 Z" id="path-5"></path>
        <path d="M0,273.486948 C0,375.390875 82.6033313,458 184.499888,458 L184.499888,458 C286.396445,458 369,375.390875 369,273.486948 L369,273.486948 C369,171.583245 286.421728,0 184.525171,0 L184.525171,0 C82.6283903,0 0,171.583245 0,273.486948" id="path-7"></path>
        <path d="M0,273.486948 C0,375.390875 82.6033313,458 184.499888,458 L184.499888,458 C286.396445,458 369,375.390875 369,273.486948 L369,273.486948 C369,171.583245 286.421728,0 184.525171,0 L184.525171,0 C82.6283903,0 0,171.583245 0,273.486948 L0,273.486948 Z" id="path-9"></path>
        <path d="M0,273.486948 C0,375.390875 82.6033313,458 184.499888,458 L184.499888,458 C286.396445,458 369,375.390875 369,273.486948 L369,273.486948 C369,171.583245 286.421728,0 184.525171,0 L184.525171,0 C82.6283903,0 0,171.583245 0,273.486948" id="path-11"></path>
        <path d="M0,273.486948 C0,375.390875 82.6033313,458 184.499888,458 L184.499888,458 C286.396445,458 369,375.390875 369,273.486948 L369,273.486948 C369,171.583245 286.421728,0 184.525171,0 L184.525171,0 C82.6283903,0 0,171.583245 0,273.486948" id="path-13"></path>
        <path d="M0,273.486948 C0,375.390875 82.6033313,458 184.499888,458 L184.499888,458 C286.396445,458 369,375.390875 369,273.486948 L369,273.486948 C369,171.583245 286.421728,0 184.525171,0 L184.525171,0 C82.6283903,0 0,171.583245 0,273.486948" id="path-15"></path>
        <path d="M0,273.486948 C0,375.390875 82.6033313,458 184.499888,458 L184.499888,458 C286.396445,458 369,375.390875 369,273.486948 L369,273.486948 C369,171.583245 286.421728,0 184.525171,0 L184.525171,0 C82.6283903,0 0,171.583245 0,273.486948" id="path-17"></path>
        <path d="M0,273.486948 C0,375.390875 82.6033313,458 184.499888,458 L184.499888,458 C286.396445,458 369,375.390875 369,273.486948 L369,273.486948 C369,171.583245 286.421728,0 184.525171,0 L184.525171,0 C82.6283903,0 0,171.583245 0,273.486948" id="path-19"></path>
        <path d="M0,273.486948 C0,375.390875 82.6033313,458 184.499888,458 L184.499888,458 C286.396445,458 369,375.390875 369,273.486948 L369,273.486948 C369,171.583245 286.421728,0 184.525171,0 L184.525171,0 C82.6283903,0 0,171.583245 0,273.486948" id="path-21"></path>
        <path d="M0,273.486948 C0,375.390875 82.6033313,458 184.499888,458 L184.499888,458 C286.396445,458 369,375.390875 369,273.486948 L369,273.486948 C369,171.583245 286.421728,0 184.525171,0 L184.525171,0 C82.6283903,0 0,171.583245 0,273.486948" id="path-23"></path>
        <path d="M0,273.486948 C0,375.390875 82.6033313,458 184.499888,458 L184.499888,458 C286.396445,458 369,375.390875 369,273.486948 L369,273.486948 C369,171.583245 286.421728,0 184.525171,0 L184.525171,0 C82.6283903,0 0,171.583245 0,273.486948" id="path-25"></path>
        <path d="M0,273.486948 C0,375.390875 82.6033313,458 184.499888,458 L184.499888,458 C286.396445,458 369,375.390875 369,273.486948 L369,273.486948 C369,171.583245 286.421728,0 184.525171,0 L184.525171,0 C82.6283903,0 0,171.583245 0,273.486948" id="path-27"></path>
        <path d="M0,273.486948 C0,375.390875 82.6033313,458 184.499888,458 L184.499888,458 C286.396445,458 369,375.390875 369,273.486948 L369,273.486948 C369,171.583245 286.421728,0 184.525171,0 L184.525171,0 C82.6283903,0 0,171.583245 0,273.486948 L0,273.486948 Z" id="path-29"></path>
        <path d="M0,273.486948 C0,375.390875 82.6033313,458 184.499888,458 L184.499888,458 C286.396445,458 369,375.390875 369,273.486948 L369,273.486948 C369,171.583245 286.421728,0 184.525171,0 L184.525171,0 C82.6283903,0 0,171.583245 0,273.486948 L0,273.486948 Z" id="path-31"></path>
        <path d="M0,273.486948 C0,375.390875 82.6033313,458 184.499888,458 L184.499888,458 C286.396445,458 369,375.390875 369,273.486948 L369,273.486948 C369,171.583245 286.421728,0 184.525171,0 L184.525171,0 C82.6283903,0 0,171.583245 0,273.486948" id="path-33"></path>
        <path d="M0,273.486948 C0,375.390875 82.6033313,458 184.499888,458 L184.499888,458 C286.396445,458 369,375.390875 369,273.486948 L369,273.486948 C369,171.583245 286.421728,0 184.525171,0 L184.525171,0 C82.6283903,0 0,171.583245 0,273.486948" id="path-35"></path>
        <path d="M0,273.486948 C0,375.390875 82.6033313,458 184.499888,458 L184.499888,458 C286.396445,458 369,375.390875 369,273.486948 L369,273.486948 C369,171.583245 286.421728,0 184.525171,0 L184.525171,0 C82.6283903,0 0,171.583245 0,273.486948" id="path-37"></path>
        <path d="M0,273.486948 C0,375.390875 82.6033313,458 184.499888,458 L184.499888,458 C286.396445,458 369,375.390875 369,273.486948 L369,273.486948 C369,171.583245 286.421728,0 184.525171,0 L184.525171,0 C82.6283903,0 0,171.583245 0,273.486948" id="path-39"></path>
        <path d="M0,273.486948 C0,375.390875 82.6033313,458 184.499888,458 L184.499888,458 C286.396445,458 369,375.390875 369,273.486948 L369,273.486948 C369,171.583245 286.421728,0 184.525171,0 L184.525171,0 C82.6283903,0 0,171.583245 0,273.486948" id="path-41"></path>
        <path d="M0,273.486948 C0,375.390875 82.6033313,458 184.499888,458 L184.499888,458 C286.396445,458 369,375.390875 369,273.486948 L369,273.486948 C369,171.583245 286.421728,0 184.525171,0 L184.525171,0 C82.6283903,0 0,171.583245 0,273.486948" id="path-43"></path>
        <path d="M0,273.486948 C0,375.390875 82.6033313,458 184.499888,458 L184.499888,458 C286.396445,458 369,375.390875 369,273.486948 L369,273.486948 C369,171.583245 286.421728,0 184.525171,0 L184.525171,0 C82.6283903,0 0,171.583245 0,273.486948" id="path-45"></path>
        <path d="M0,273.486948 C0,375.390875 82.6033313,458 184.499888,458 L184.499888,458 C286.396445,458 369,375.390875 369,273.486948 L369,273.486948 C369,171.583245 286.421728,0 184.525171,0 L184.525171,0 C82.6283903,0 0,171.583245 0,273.486948" id="path-47"></path>
        <path d="M0,273.486948 C0,375.390875 82.6033313,458 184.499888,458 L184.499888,458 C286.396445,458 369,375.390875 369,273.486948 L369,273.486948 C369,171.583245 286.421728,0 184.525171,0 L184.525171,0 C82.6283903,0 0,171.583245 0,273.486948 L0,273.486948 Z" id="path-49"></path>
        <polygon id="path-51" points="0 0 41.1113328 0 41.1113328 71.0204338 0 71.0204338"></polygon>
        <path d="M0,184.499888 C0,286.396669 82.603555,369 184.499888,369 L184.499888,369 C286.396445,369 369,286.396669 369,184.499888 L369,184.499888 C369,82.6037787 286.396445,0 184.499888,0 L184.499888,0 C82.603555,0 0,82.6037787 0,184.499888" id="path-53"></path>
        <path d="M0,184.499888 C0,286.396669 82.603555,369 184.499888,369 L184.499888,369 C286.396445,369 369,286.396669 369,184.499888 L369,184.499888 C369,82.6037787 286.396445,0 184.499888,0 L184.499888,0 C82.603555,0 0,82.6037787 0,184.499888" id="path-55"></path>
    </defs>
    <g id="Page-1" stroke="none" stroke-width="1" fill="none" fill-rule="evenodd">
        <g id="Desktop-·-Error-404" transform="translate(-822.000000, -168.000000)">
            <g id="person-error-404-desktop" transform="translate(822.000000, 168.000000)">
                <g id="Group-3" transform="translate(0.000000, 160.000000)">
                    <mask id="mask-2" fill="white">
                        <use xlink:href="#path-1"></use>
                    </mask>
                    <g id="Clip-2"></g>
                    <path d="M184.500022,369 C286.396653,369 369.000045,286.396669 369.000045,184.500112 C369.000045,82.6033313 286.396653,0 184.500022,0 C82.6033914,0 0,82.6033313 0,184.500112 C0,286.396669 82.6033914,369 184.500022,369" id="Fill-1" fill="#83C3EB" mask="url(#mask-2)"></path>
                </g>
                <g id="Group-79" transform="translate(0.000000, 71.000000)">
                    <g id="Group-6">
                        <mask id="mask-4" fill="white">
                            <use xlink:href="#path-3"></use>
                        </mask>
                        <g id="Clip-5"></g>
                        <path d="M251.83998,92.8883041 C251.71379,77.995476 241.570919,66.4930161 231.858526,55.9587534 C219.742926,42.8174962 205.939421,32.3619961 185.787475,32.3619961 C166.723361,32.3619961 162.514784,39.8211643 150.45512,51.7521191 C139.437196,62.6526722 120.226307,77.2859421 120.226307,93.3734096 L120.226307,127.10659 C120.226307,160.802402 149.557469,188.118227 186.039856,188.118227 C220.581956,188.118227 248.792622,163.625993 251.71021,132.420598 L251.83998,92.8883041 Z" id="Fill-4" fill="#0039A6" mask="url(#mask-4)"></path>
                    </g>
                    <g id="Group-9">
                        <mask id="mask-6" fill="white">
                            <use xlink:href="#path-5"></use>
                        </mask>
                        <g id="Clip-8"></g>
                        <path d="M241.894628,109.543466 C241.653658,78.7410572 216.974976,53.8433758 186.117897,53.8433758 C155.111135,53.8433758 130.329531,78.9811486 130.329531,109.989861 L130.329531,144.935134 C130.329531,175.944294 155.111135,201.081843 186.117897,201.081843 C215.475684,201.081843 239.378431,178.542562 241.858158,149.82557 L241.894628,109.543466 Z" id="Fill-7" fill="#FABE64" mask="url(#mask-6)"></path>
                    </g>
                    <g id="Group-12">
                        <mask id="mask-8" fill="white">
                            <use xlink:href="#path-7"></use>
                        </mask>
                        <g id="Clip-11"></g>
                        <path d="M219.225524,239.109012 C210.767202,217.057969 228.899433,189.161942 235.659557,170.508651 L185.572124,170.508651 L135.558973,170.508651 C141.735356,184.498619 161.273131,218.678866 151.993007,239.109012 C146.262317,251.725559 128.274175,276.98886 128.274175,276.98886 L185.572124,276.98886 L242.944356,276.98886 C242.944356,276.98886 224.188109,252.046874 219.225524,239.109012" id="Fill-10" fill="#FABE64" mask="url(#mask-8)"></path>
                    </g>
                    <g id="Group-15">
                        <mask id="mask-10" fill="white">
                            <use xlink:href="#path-9"></use>
                        </mask>
                        <g id="Clip-14"></g>
                        <path d="M141.573255,67.6431726 C141.573255,67.6431726 152.275928,96.1285761 129.261434,123.853429 L124.324132,104.221425 L135.407388,69.6032852 L141.573255,67.6431726 Z" id="Fill-13" fill="#0039A6" mask="url(#mask-10)"></path>
                    </g>
                    <g id="Group-18">
                        <mask id="mask-12" fill="white">
                            <use xlink:href="#path-11"></use>
                        </mask>
                        <g id="Clip-17"></g>
                        <path d="M231.372895,73.0830669 C231.372895,73.0830669 227.132994,95.1197894 238.439545,123.853563 L249.088743,117.50065 C249.088743,117.50065 246.919346,66.3694574 231.372895,73.0830669" id="Fill-16" fill="#0039A6" mask="url(#mask-12)"></path>
                    </g>
                    <g id="Group-21">
                        <mask id="mask-14" fill="white">
                            <use xlink:href="#path-13"></use>
                        </mask>
                        <g id="Clip-20"></g>
                        <path d="M233.449059,127.44905 C233.449059,121.355248 238.189469,116.414914 244.283291,116.414914 C250.376666,116.414914 255.615572,121.355248 255.615572,127.44905 C255.615572,133.396962 250.095423,138.232578 245.313397,138.461482 L234.155187,138.234144 C234.155187,138.234144 233.449059,128.327297 233.449059,127.44905" id="Fill-19" fill="#FABE64" mask="url(#mask-14)"></path>
                    </g>
                    <g id="Group-24">
                        <mask id="mask-16" fill="white">
                            <use xlink:href="#path-15"></use>
                        </mask>
                        <g id="Clip-23"></g>
                        <path d="M135.407366,127.44905 C135.407366,121.355248 130.666956,116.414914 124.573581,116.414914 C118.479759,116.414914 113.241076,121.355248 113.241076,127.44905 C113.241076,133.396962 118.761226,138.232578 123.543028,138.461482 L134.701462,138.234144 C134.701462,138.234144 135.407366,128.327297 135.407366,127.44905" id="Fill-22" fill="#FABE64" mask="url(#mask-16)"></path>
                    </g>
                    <g id="Group-27">
                        <mask id="mask-18" fill="white">
                            <use xlink:href="#path-17"></use>
                        </mask>
                        <g id="Clip-26"></g>
                        <path d="M185.583692,156.559541 C166.026227,156.559541 148.741081,146.552898 138.63647,131.385967 L128.274108,116.415048 C128.274108,122.775345 126.829186,141.777697 126.788241,142.70517 C124.772554,188.118249 156.906973,206.649816 187.913735,206.649816 C217.271523,206.649816 242.300808,192.13827 244.084027,149.760233 L242.300808,116.415048 L232.564699,131.385967 C222.505954,146.577959 205.209845,156.559541 185.583692,156.559541" id="Fill-25" fill="#0039A6" mask="url(#mask-18)"></path>
                    </g>
                    <g id="Group-30">
                        <mask id="mask-20" fill="white">
                            <use xlink:href="#path-19"></use>
                        </mask>
                        <g id="Clip-29"></g>
                        <path d="M209.678498,164.607817 C209.678498,179.048432 196.482451,190.754511 180.204365,190.754511 C163.92628,190.754511 150.730232,179.048432 150.730232,164.607817 C150.730232,150.16765 163.92628,138.461347 180.204365,138.461347 C196.482451,138.461347 209.678498,150.16765 209.678498,164.607817" id="Fill-28" fill="#0039A6" mask="url(#mask-20)"></path>
                    </g>
                    <g id="Group-33">
                        <mask id="mask-22" fill="white">
                            <use xlink:href="#path-21"></use>
                        </mask>
                        <g id="Clip-32"></g>
                        <path d="M192.941161,95.4121281 C185.630409,100.421156 185.358116,116.633703 190.234784,126.338051 C191.988694,129.828215 194.085375,132.126424 194.316052,136.441805 C194.5031,139.951436 192.479582,143.938117 185.914113,143.938117 C180.646344,143.938117 177.512174,140.443925 177.512174,137.103678" id="Fill-31" fill="#FABE64" mask="url(#mask-22)"></path>
                    </g>
                    <g id="Group-36">
                        <mask id="mask-24" fill="white">
                            <use xlink:href="#path-23"></use>
                        </mask>
                        <g id="Clip-35"></g>
                        <path d="M185.914068,145.283636 C179.81331,145.283636 176.167443,141.123543 176.167443,137.103298 C176.167443,136.359977 176.768636,135.758741 177.511906,135.758741 C178.255398,135.758741 178.856592,136.359977 178.856592,137.103298 C178.856592,139.801809 181.497412,142.594298 185.914068,142.594298 C188.470314,142.594298 190.374578,141.949654 191.578978,140.678266 C192.910016,139.276427 193.024572,137.468246 192.97423,136.513698 C192.818058,133.613358 191.712104,131.699787 190.434093,129.485486 C189.968487,128.67996 189.489009,127.84915 189.032353,126.940696 C183.872204,116.670019 184.126822,99.8208823 192.182633,94.3023598 C192.795237,93.8870665 193.632701,94.0407877 194.05244,94.6534348 C194.472403,95.2660818 194.313994,96.1036048 193.701613,96.5233732 C187.031433,101.092047 186.87996,116.663083 191.436902,125.73375 C191.868052,126.591859 192.322695,127.378812 192.763018,128.140706 C194.153347,130.550122 195.468052,132.826404 195.65868,136.371388 C195.787108,138.762457 195.029966,140.951473 193.531794,142.53008 C191.799364,144.35661 189.236629,145.283636 185.914068,145.283636" id="Fill-34" fill="#001E5F" mask="url(#mask-24)"></path>
                    </g>
                    <g id="Group-39">
                        <mask id="mask-26" fill="white">
                            <use xlink:href="#path-25"></use>
                        </mask>
                        <g id="Clip-38"></g>
                        <path d="M210.111349,98.590934 C209.617999,98.590934 209.140758,98.3179503 208.906725,97.8429139 C208.218272,96.4547245 206.001889,95.1191181 203.395301,94.5250429 C200.054842,93.7539758 196.796718,94.2885316 194.676768,95.9407544 C194.091461,96.3949814 193.247284,96.2918293 192.788167,95.7044668 C192.333971,95.1168806 192.439577,94.2726449 193.024661,93.8159565 C195.773325,91.6795233 199.875848,90.9614866 203.994257,91.9021617 C207.451958,92.6915769 210.255886,94.51117 211.315973,96.6498408 C211.646215,97.3150708 211.37325,98.1205965 210.707843,98.4510858 C210.517216,98.5473014 210.313163,98.590934 210.111349,98.590934" id="Fill-37" fill="#001E5F" mask="url(#mask-26)"></path>
                    </g>
                    <g id="Group-42">
                        <mask id="mask-28" fill="white">
                            <use xlink:href="#path-27"></use>
                        </mask>
                        <g id="Clip-41"></g>
                        <path d="M162.304423,98.590934 C162.102608,98.590934 161.898332,98.5473014 161.707928,98.4510858 C161.042521,98.1228341 160.769556,97.3150708 161.099799,96.6498408 C162.157648,94.51117 164.961352,92.6938144 168.414578,91.9021617 C172.526275,90.9637242 176.633273,91.6750481 179.388873,93.8159565 C179.973956,94.2726449 180.079339,95.1168806 179.625144,95.7044668 C179.168487,96.2918293 178.324311,96.3949814 177.736766,95.9407544 C175.614354,94.2885316 172.354218,93.7562134 169.015771,94.5250429 C166.409183,95.1215795 164.197275,96.4547245 163.509047,97.8429139 C163.275013,98.3179503 162.797773,98.590934 162.304423,98.590934" id="Fill-40" fill="#001E5F" mask="url(#mask-28)"></path>
                    </g>
                    <g id="Group-45">
                        <mask id="mask-30" fill="white">
                            <use xlink:href="#path-29"></use>
                        </mask>
                        <g id="Clip-44"></g>
                        <path d="M140.542725,134.072396 C140.542725,134.072396 137.92674,132.1002 136.98971,120.856404 C136.052905,109.612383 136.98971,100.055268 136.98971,100.055268 L128.27431,116.415048 L129.261457,135.538229 L140.542725,134.072396 Z" id="Fill-43" fill="#0039A6" mask="url(#mask-30)"></path>
                    </g>
                    <g id="Group-48">
                        <mask id="mask-32" fill="white">
                            <use xlink:href="#path-31"></use>
                        </mask>
                        <g id="Clip-47"></g>
                        <path d="M229.531167,135.538296 C229.531167,135.538296 232.648109,132.100267 233.585139,120.856471 C234.522168,109.61245 233.585139,100.055111 233.585139,100.055111 L242.300763,116.415115 L241.646543,138.461459 L229.531167,135.538296 Z" id="Fill-46" fill="#0039A6" mask="url(#mask-32)"></path>
                    </g>
                    <g id="Group-51">
                        <mask id="mask-34" fill="white">
                            <use xlink:href="#path-33"></use>
                        </mask>
                        <g id="Clip-50"></g>
                        <path d="M159.923679,53.8434429 L156.610516,61.8606614 C156.610516,61.8606614 160.836768,55.8946246 173.477937,59.6369629 C186.118658,63.379525 208.919254,61.8796808 215.559006,64.626971 C221.631349,67.1393163 224.821231,68.946379 229.543518,74.9325539 C229.984736,75.4919468 230.439378,76.0880358 230.911025,76.7241774 C236.429608,84.1705915 230.911025,67.6432174 230.911025,67.6432174 C230.911025,67.6432174 202.750479,28.0901141 159.923679,53.8434429" id="Fill-49" fill="#0039A6" mask="url(#mask-34)"></path>
                    </g>
                    <g id="Group-54">
                        <mask id="mask-36" fill="white">
                            <use xlink:href="#path-35"></use>
                        </mask>
                        <g id="Clip-53"></g>
                        <path d="M260.03431,455.04569 C265.235627,458.900354 274.070282,465.525803 279.951326,470.363656 C280.090717,470.187336 280.224067,470.010791 280.3648,469.835142 C284.133054,465.129082 288.279878,460.361264 292.518213,455.465906 L269.27416,440.300541 C266.216957,445.045535 263.097778,449.90375 260.03431,455.04569" id="Fill-52" fill="#E8BD6D" mask="url(#mask-36)"></path>
                    </g>
                    <g id="Group-57">
                        <mask id="mask-38" fill="white">
                            <use xlink:href="#path-37"></use>
                        </mask>
                        <g id="Clip-56"></g>
                        <path d="M307.573462,437.400223 L281.607147,420.458899 C279.356756,424.376886 276.900075,428.351932 274.370677,432.346668 C272.706041,434.980737 270.999565,437.622638 269.274071,440.30034 L292.518123,455.465928 C294.206924,453.515437 295.908925,451.54615 297.60936,449.549789 C300.931697,445.63471 304.27954,441.64154 307.573462,437.400223" id="Fill-55" fill="#6C92D9" mask="url(#mask-38)"></path>
                    </g>
                    <g id="Group-60">
                        <mask id="mask-40" fill="white">
                            <use xlink:href="#path-39"></use>
                        </mask>
                        <g id="Clip-59"></g>
                        <path d="M315.335814,426.632806 C318.156522,422.300867 320.906081,417.64023 323.231649,411.974475 C324.382799,409.131641 325.427001,406.017389 326.139617,402.434813 C326.838585,398.862978 327.22096,394.767327 326.682414,390.208946 C326.410121,387.937811 325.899095,385.573593 325.110406,383.237569 C324.90792,382.644165 324.703421,382.095288 324.457976,381.472572 L323.984316,380.381309 L323.61917,379.578021 L323.450469,379.188907 L323.407958,379.091796 L323.178846,378.656365 L323.154459,378.603558 L323.056236,378.393226 L322.663794,377.550557 C321.60572,375.312091 320.585236,373.030886 319.477044,370.815243 C318.347821,368.6175 317.241643,366.386865 316.074384,364.204786 L312.477069,357.72366 L308.704117,351.371642 L304.873663,345.302453 L304.776112,345.148061 L300.71252,339.050679 L297.334695,334.222223 L296.532805,333.076363 C293.705385,329.14495 290.827846,325.270595 287.905335,321.477016 C284.981929,317.69194 282.025186,313.957433 279.059269,310.306612 C276.097156,306.649749 273.116472,303.04435 270.185459,299.521294 L261.502725,289.064451 L261.472967,289.02865 C251.472172,276.98425 233.60127,275.328223 221.557492,285.329944 C209.513713,295.331665 207.858026,313.203596 217.859045,325.247995 C218.964999,326.580693 220.291339,327.882512 221.571364,328.958336 L232.030605,337.633401 L242.166317,346.112678 C245.490667,348.928662 248.733576,351.748673 251.930394,354.591507 C255.118262,357.435461 258.227821,360.310516 261.283906,363.218017 L264.853253,366.706167 L265.78894,367.620662 L270.16935,372.098714 L273.983694,376.194812 L274.415515,376.659109 L278.51871,381.31102 L282.468641,386.060713 C283.75784,387.661919 284.983719,389.294227 286.254571,390.915348 C287.499468,392.546985 288.652631,394.221359 289.866429,395.879624 C290.134919,396.289099 290.701432,397.004451 290.7294,397.954076 C290.754906,398.832547 290.698747,399.715045 290.372308,401.132099 C289.722116,403.989925 288.533825,406.911746 286.897156,410.414664 C285.361171,413.698524 283.560947,417.057566 281.607237,420.458899 L307.573551,437.400223 C310.210121,434.00538 312.813129,430.455025 315.335814,426.632806" id="Fill-58" fill="#05BE50" mask="url(#mask-40)"></path>
                    </g>
                    <g id="Group-63">
                        <mask id="mask-42" fill="white">
                            <use xlink:href="#path-41"></use>
                        </mask>
                        <g id="Clip-62"></g>
                        <path d="M111.775771,455.04569 C106.574454,458.900354 97.7393511,465.525803 91.8587545,470.363656 C91.7193636,470.187336 91.5860137,470.010791 91.4452803,469.835142 C87.6770267,465.129082 83.5302026,460.361264 79.292092,455.465906 L102.53592,440.300541 C105.593124,445.045535 108.712303,449.90375 111.775771,455.04569" id="Fill-61" fill="#E8BD6D" mask="url(#mask-42)"></path>
                    </g>
                    <g id="Group-66">
                        <mask id="mask-44" fill="white">
                            <use xlink:href="#path-43"></use>
                        </mask>
                        <g id="Clip-65"></g>
                        <path d="M64.236619,437.400223 L90.2029335,420.458899 C92.4531013,424.376886 94.9097825,428.351932 97.4394034,432.346668 C99.1040398,434.980737 100.810292,437.622638 102.53601,440.30034 L79.2921815,455.465928 C77.6031572,453.515437 75.901156,451.54615 74.2007209,449.549789 C70.8781603,445.63471 67.5305407,441.64154 64.236619,437.400223" id="Fill-64" fill="#6C92D9" mask="url(#mask-44)"></path>
                    </g>
                    <g id="Group-69">
                        <mask id="mask-46" fill="white">
                            <use xlink:href="#path-45"></use>
                        </mask>
                        <g id="Clip-68"></g>
                        <path d="M56.4741554,426.632806 C53.6534469,422.300867 50.9038881,417.64023 48.5783195,411.974475 C47.4271697,409.131641 46.3829683,406.017389 45.6703518,402.434813 C44.9713835,398.862978 44.5890093,394.767327 45.127555,390.208946 C45.3998484,387.937811 45.9108738,385.573593 46.6997862,383.237569 C46.9022722,382.644165 47.1065482,382.095288 47.3519925,381.472572 L47.8258769,380.381309 L48.1907993,379.578021 L48.3597241,379.188907 L48.4017874,379.091796 L48.6313462,378.656365 L48.6555103,378.603558 L48.7539565,378.393226 L49.146399,377.550557 C50.2042486,375.312091 51.2247334,373.030886 52.3331485,370.815243 C53.4623717,368.6175 54.5685494,366.386865 55.7358086,364.204786 L59.3331237,357.72366 L63.1058521,351.371642 L66.9365295,345.302453 L67.0340808,345.148061 L71.0974493,339.050679 L74.4754978,334.222223 L75.2771635,333.076363 C78.1045842,329.14495 80.9821231,325.270595 83.9046339,321.477016 C86.8282635,317.69194 89.7847831,313.957433 92.7506998,310.306612 C95.7130367,306.649749 98.6937203,303.04435 101.62451,299.521294 L110.307244,289.064451 L110.336778,289.02865 C120.337797,276.98425 138.208699,275.328223 150.252477,285.329944 C162.296256,295.331665 163.952167,313.203596 153.950924,325.247995 C152.84497,326.580693 151.518854,327.882512 150.238829,328.958336 L139.77914,337.633401 L129.643876,346.112678 C126.319525,348.928662 123.076169,351.748673 119.879575,354.591507 C116.691707,357.435461 113.582148,360.310516 110.526287,363.218017 L106.956716,366.706167 L106.021253,367.620662 L101.640843,372.098714 L97.8264984,376.194812 L97.3944537,376.659109 L93.2912592,381.31102 L89.3415513,386.060713 C88.0521293,387.661919 86.8264736,389.294227 85.5551746,390.915348 C84.3107247,392.546985 83.1573375,394.221359 81.9435401,395.879624 C81.6752741,396.289099 81.1083132,397.004451 81.0805693,397.954076 C81.0550628,398.832547 81.1112219,399.715045 81.4378844,401.132099 C82.0878533,403.989925 83.2763679,406.911746 84.9130367,410.414664 C86.448798,413.698524 88.2490218,417.057566 90.2029559,420.458899 L64.2366414,437.400223 C61.5998484,434.00538 58.9966165,430.455025 56.4741554,426.632806" id="Fill-67" fill="#05BE50" mask="url(#mask-46)"></path>
                    </g>
                    <g id="Group-72">
                        <mask id="mask-48" fill="white">
                            <use xlink:href="#path-47"></use>
                        </mask>
                        <g id="Clip-71"></g>
                        <path d="M113.730019,302.146569 C113.750603,300.798432 113.549236,285.413338 113.549236,285.413338 C121.132728,278.829732 135.253499,266.201774 146.123978,249.868845 L224.730392,249.868845 C232.495339,260.167938 249.2133,276.569337 257.687732,285.272595 C257.687732,285.272595 257.945034,300.810068 257.979043,302.146122 C259.216557,350.916005 261.149459,412.023635 258.801293,472.038434 L197.022697,472.038434 L138.353437,472.038434 L113.252778,472.038434 C111.872965,422.392765 112.808428,362.597247 113.730019,302.146569" id="Fill-70" fill="#05BE50" mask="url(#mask-48)"></path>
                    </g>
                    <mask id="mask-50" fill="white">
                        <use xlink:href="#path-49"></use>
                    </mask>
                    <g id="Clip-74"></g>
                    <polygon id="Fill-73" fill="#05BE50" mask="url(#mask-50)" points="146.105855 265.278641 224.956147 265.278641 224.956147 249.86871 146.105855 249.86871"></polygon>
                    <path d="M146.123911,249.8688 C135.253656,266.201729 121.132661,278.830135 113.549168,285.413517 C113.549168,285.413517 113.750759,300.798388 113.729952,302.146524 C112.80836,362.597203 111.177956,422.39272 112.55777,472.038165 L157.633395,472.038165 L146.123911,249.8688 Z" id="Fill-75" fill="#05BE50" mask="url(#mask-50)"></path>
                    <path d="M266.138894,316.569955 C266.104885,315.233901 257.687732,285.272371 257.687732,285.272371 C249.2133,276.569114 232.495339,260.168386 224.730392,249.868845 L213.230752,472.03821 L259.496457,472.03821 C261.011858,433.309428 260.454742,398.990452 259.536283,362.960629 C259.031523,343.158345 266.577651,333.867277 266.138894,316.569955" id="Fill-76" fill="#05BE50" mask="url(#mask-50)"></path>
                    <path d="M205.99332,120.197372 C205.99332,122.307178 204.282817,124.017577 202.173382,124.017577 C200.0635,124.017577 198.353221,122.307178 198.353221,120.197372 L198.353221,116.724213 C198.353221,114.614183 200.0635,112.903784 202.173382,112.903784 C204.282817,112.903784 205.99332,114.614183 205.99332,116.724213 L205.99332,120.197372 Z" id="Fill-77" fill="#001E5F" mask="url(#mask-50)"></path>
                    <path d="M174.253178,120.197372 C174.253178,122.307178 172.542899,124.017577 170.433017,124.017577 C168.323359,124.017577 166.613079,122.307178 166.613079,120.197372 L166.613079,116.724213 C166.613079,114.614183 168.323359,112.903784 170.433017,112.903784 C172.542899,112.903784 174.253178,114.614183 174.253178,116.724213 L174.253178,120.197372 Z" id="Fill-78" fill="#001E5F" mask="url(#mask-50)"></path>
                </g>
                <g id="Group-87" transform="translate(95.000000, 0.000000)">
                    <g id="Group-82" transform="translate(71.153762, 0.000000)">
                        <mask id="mask-52" fill="white">
                            <use xlink:href="#path-51"></use>
                        </mask>
                        <g id="Clip-81"></g>
                        <path d="M18.3737467,71.0204338 C16.4108689,71.0228873 14.7755855,70.3481277 13.469465,68.9992794 C12.1624483,67.6495366 11.5108445,65.9851147 11.5135251,64.0066846 C11.5159982,62.0944557 12.1720834,60.4613452 13.4826853,59.1071293 C14.7923909,57.7549262 16.4294669,57.0756936 18.3923448,57.0732254 C20.2884489,57.0705496 21.9069268,57.7455328 23.2466582,59.0941574 C24.584821,60.4447949 25.2543506,62.0761162 25.2516698,63.9885688 C25.2491969,65.9667752 24.5751859,67.6329863 23.2334379,68.9863076 C21.8898973,70.3387343 20.2698509,71.0177433 18.3737467,71.0204338 L18.3737467,71.0204338 Z M23.2128232,47.9669981 L13.0069787,47.9806409 L13.0260249,33.6380296 C17.5417643,32.7760729 21.5336215,31.0892857 25.0054057,28.5776681 C28.4753973,26.0680634 30.213082,23.1303878 30.2175635,19.7673251 C30.2218208,16.6019712 29.0476793,14.1154027 26.6953629,12.3038175 C24.3419261,10.4940214 21.1692791,9.59113626 17.1798868,9.59650392 C11.4227839,9.60433176 5.69637909,11.4908406 0,15.2575961 L0.0127721504,5.86105983 C5.25025011,1.96346768 11.5652942,0.00986307534 18.959249,-7.55079818e-06 C25.1732363,-0.00825277733 30.403992,1.70022869 34.6533089,5.12188831 C38.9662624,8.54623177 41.119154,13.1923889 41.1113328,19.0605832 C41.1045893,23.8751506 39.3326215,27.9988554 35.7956321,31.4319214 C32.3883809,34.7992334 28.1977711,37.2777505 23.2249231,38.8665778 L23.2128232,47.9669981 Z" id="Fill-80" fill="#05BE50" mask="url(#mask-52)"></path>
                    </g>
                    <path d="M165.760621,115.999993 C164.099793,116.002223 162.716143,115.432133 161.610792,114.293295 C160.504993,113.153562 159.953549,111.747906 159.955783,110.077221 C159.958031,108.46245 160.513059,107.083409 161.621996,105.940097 C162.730484,104.798128 164.115478,104.224459 165.776306,104.222217 C167.380667,104.22021 168.750424,104.790076 169.883784,105.929138 C171.016024,107.069543 171.58248,108.447018 171.580692,110.061789 C171.578223,111.732474 171.007958,113.139471 169.872805,114.282336 C168.735859,115.424305 167.364982,115.99775 165.760621,115.999993 L165.760621,115.999993 Z M169.855103,96.5328258 L161.219337,96.5442321 L161.235918,84.4327782 C165.056808,83.7047893 168.434481,82.2805702 171.372076,80.1596735 C174.308102,78.0401187 175.778692,75.5593652 175.782501,72.7196493 C175.785862,70.0467783 174.792548,67.9469049 172.801885,66.4171218 C170.81055,64.8886806 168.126157,64.1264729 164.750276,64.130946 C159.879157,64.1374319 155.033583,65.7305087 150.213776,68.9115182 L150.224308,60.9765511 C154.656244,57.6852808 159.999708,56.0353963 166.256046,56.0270963 C171.513914,56.020188 175.940248,57.4629703 179.535721,60.3523369 C183.185419,63.2439401 185.006907,67.167476 184.99998,72.1229445 C184.994583,76.1884996 183.495088,79.6707691 180.502371,82.5697528 C177.619226,85.4132707 174.073498,87.5062109 169.86541,88.8479022 L169.855103,96.5328258 Z" id="Fill-83" fill="#05BE50"></path>
                    <path d="M15.5468441,115.999993 C13.8860164,116.002223 12.5023668,115.432133 11.3970156,114.293295 C10.2912162,113.153562 9.73977302,111.747906 9.74200695,110.077221 C9.74425448,108.46245 10.2995069,107.083409 11.4084433,105.940097 C12.5167074,104.798128 13.9019256,104.224459 15.5625292,104.222217 C17.1668905,104.22021 18.5364236,104.790076 19.670232,105.929138 C20.8024719,107.069543 21.368928,108.447018 21.3666939,110.061789 C21.3644466,111.732474 20.7941812,113.139471 19.6590284,114.282336 C18.522307,115.424305 17.1512054,115.99775 15.5468441,115.999993 L15.5468441,115.999993 Z M19.6413266,96.5328258 L11.0057844,96.5442321 L11.0219177,84.4327782 C14.8430314,83.7047893 18.2204809,82.2805702 21.1582996,80.1596735 C24.0943257,78.0401187 25.5646915,75.5593652 25.5687248,72.7196493 C25.5723099,70.0467783 24.5787711,67.9469049 22.5881082,66.4171218 C20.5967731,64.8886806 17.9121567,64.1264729 14.5367238,64.130946 C9.66538085,64.1374319 4.81980624,65.7305087 0,68.9115182 L0.0105314223,60.9765511 C4.44246762,57.6852808 9.78593202,56.0353963 16.0422691,56.0270963 C21.3001377,56.020188 25.726472,57.4629703 29.3219444,60.3523369 C32.9714183,63.2439401 34.7929063,67.167476 34.7862026,72.1229445 C34.7808063,76.1884996 33.281311,79.6707691 30.2885945,82.5697528 C27.4054496,85.4132707 23.8594973,87.5062109 19.651858,88.8479022 L19.6413266,96.5328258 Z" id="Fill-85" fill="#05BE50"></path>
                </g>
                <g id="Group-94" transform="translate(0.000000, 160.000000)">
                    <g id="Group-90">
                        <mask id="mask-54" fill="white">
                            <use xlink:href="#path-53"></use>
                        </mask>
                        <g id="Clip-89"></g>
                        <path d="M292.574484,210.240224 L75.9779888,210.240224 C67.9246389,210.240224 61.3963108,216.792045 61.3963108,224.874705 L61.3963108,371.255314 L307.156162,371.255314 L307.156162,224.874705 C307.156162,216.792045 300.626938,210.240224 292.574484,210.240224" id="Fill-88" fill="#F9F9F9" mask="url(#mask-54)"></path>
                    </g>
                    <g id="Group-93">
                        <mask id="mask-56" fill="white">
                            <use xlink:href="#path-55"></use>
                        </mask>
                        <g id="Clip-92"></g>
                        <path d="M194.8222,290.747948 C194.8222,296.598116 190.079553,301.340987 184.229161,301.340987 C178.378769,301.340987 173.636122,296.598116 173.636122,290.747948 C173.636122,284.897556 178.378769,280.154685 184.229161,280.154685 C190.079553,280.154685 194.8222,284.897556 194.8222,290.747948" id="Fill-91" fill="#05BE50" mask="url(#mask-56)"></path>
                    </g>
                </g>
                <path d="M186,252 L186,252 C181.040538,252 175,247.845725 175,242.768278 C175,242.768278 175.581668,226 186,226 C196.296065,226 197,242.768278 197,242.768278 C197,247.845725 190.959237,252 186,252" id="Fill-95" fill="#001F60"></path>
            </g>
        </g>
    </g>
</svg>